<svg xmlns="http://www.w3.org/2000/svg" viewBox="0 0 1117.17 551.43"><defs><style>.cls-1{fill:#e02d52;}.cls-2{fill:#00662f;}.cls-3{fill:#fff;}.cls-4{fill:none;stroke:#009832;stroke-miterlimit:10;stroke-width:4px;}</style></defs><title>Asset 1</title><g id="Layer_2" data-name="Layer 2"><g id="Capa_1" data-name="Capa 1"><path class="cls-1" d="M17.4,454.5a.26.26,0,0,1,0,.11,1.42,1.42,0,0,0,.31-.18A1.78,1.78,0,0,1,17.4,454.5Z"/><path class="cls-2" d="M849.2,526.08c9.74-.78,19.64-1.35,29.85-1.71q45.67-1.64,91.35-3l1.21-15.91c7.76,3.08,17.33-2.34,20.24-8.21s2.42-12.51,6.57-18c2-2.68,5.06-5,7-7.66,6-8.37.37-18.26-3.48-27.23a70,70,0,0,1-3-48.1c20.86-2.92,45.88-8.61,49.86-23.14,1.39-5.07-.27-10.27-1.11-15.4-3.4-20.68,12.4-31.43,18.72-49.45,4.67-13.32-.25-19.3,12.08-31.7-19.24-48.11-65.66-50.64-107.62-55.6l.65-.64c.65-.09,1.31-.13,2-.24.77-1.33,1.52-2.69,2.27-4,20.29-21.39,38.11-53,56.08-70.47-3.78-49.3-7.19-106.7-39.74-121.63A33.59,33.59,0,0,0,977,21.41,232.33,232.33,0,0,0,954,0C943,16.53,926.45,24.94,910.83,30.13c-1.1-1.68-2.19-3.37-3.3-5a43.32,43.32,0,0,1-11.27,9.22c-5.14,1.29-9.91,2.38-14,3.46-47-18.73-89.47-14.15-132-9.53-32.88,1.28-66.49,18.45-97.81,38.46a13.1,13.1,0,0,0-1.12.71c-4.85-15.2-12.95-36.3-25-37.33-32.91-6.82-77.49-22.77-101.47,28.4-10.79-17.35-22.83-18.37-29.22-10.72-8.22,9.8-16.82,15.8-25.68,19.18-21.15-6.24-43.25-15.4-63.65-5.31a5.51,5.51,0,0,0,.48.61c-12.93-3.84-25.8-7.77-38.28-8.81-24.44,6.11-51-8.33-69.41.85-22.9,11.4-31.78,11.78-52.27-2.21-8.28-5.65-21.11-7.82-32.2-5.45C219,45.7,190.73,36.75,187,36.53c-13.11-.76-26,1.54-39.67.45-10.53-.84-20.84-5.42-31.52-.42-6.56,3.07,1.38,9.64-3.64,12.09-8.11,4-13.84,2.71-23.28,4.15A23.34,23.34,0,0,0,72,64.14c-2.91,5.3-3.19,11.1-3.35,16.78-.07,2.48-.2,5.14-2.3,7.16-3,2.92-8.91,3.38-13.58,4.94-12.14,4.05-15.08,14.92-16.5,24.24-2.94,19.25-8.29,26.91-19.61,42.42C8.38,171-4.84,196.19,1.81,208.7c3.9,7.33,13,12.64,19.15,19.19,7.75,8.28,10.51,18.29,13.1,28l7.47,28c6,22.57,11.28,47.91-7.51,66.78-4.67,4.69-10.71,8.8-14,14s-3,12.25,3.66,15.62c2.81,1.43,6.32,2,9.39,3.13,16.73,6.2,12.1,23.18,10,36.28-5.48,33.6,26.74,68.34,73,78.72A109.89,109.89,0,0,0,95.82,519.3a243.27,243.27,0,0,0,88.81,4.64c28.34-3.78,61-10.88,90-5.52,15.6,2.89,64.13,12.78,73.27,22.17,17.32,17.78,45,7.85,69,9.85,3.19-3.83,6.38-7.59,9.59-11.45,9.21-3.3,23.7,10.19,26.89,6.37,34-17.58,66.58-2.63,94.23-12.54,31.67-6.75,62.18-4.23,94.41-5.94,5.52-.29,11.21-.57,16.45.67,10.41,2.47,16.36,10.2,26.06,13.82,26,9.69,63.49,1.44,89.43-4.18A562.92,562.92,0,0,1,849.2,526.08ZM77.14,50.24,76.94,52c-.55-1.13-1.08-2.31-1.59-3.51A14.18,14.18,0,0,0,77.14,50.24ZM1047.21,367.4l.24-1.79c.64,1.13,1.26,2.31,1.87,3.51A15.85,15.85,0,0,0,1047.21,367.4Zm-386.08-12-286.35-5.17M262.61,63.07a17,17,0,0,1-1.77-1.65C261.44,61.94,262,62.49,262.61,63.07Z"/><path class="cls-1" d="M1117.17,264.37a.23.23,0,0,1,0-.11,1.75,1.75,0,0,0-.36.18A2.5,2.5,0,0,1,1117.17,264.37Z"/><path class="cls-1" d="M17.4,153.27a.25.25,0,0,1,0,.11,1.44,1.44,0,0,0,.31-.18A1.78,1.78,0,0,1,17.4,153.27Z"/><path class="cls-3" d="M288.81,388.06a3.24,3.24,0,0,1,1,2.42v60.76a3.28,3.28,0,0,1-1,2.38,3.17,3.17,0,0,1-2.36,1,3.39,3.39,0,0,1-2.49-1,3.22,3.22,0,0,1-1-2.38V402.32L258.61,451.4a3.34,3.34,0,0,1-3,1.65,3.27,3.27,0,0,1-3.15-2.07l-24.25-47.89v48.15a3.33,3.33,0,0,1-3.41,3.37,3.34,3.34,0,0,1-2.42-1,3.26,3.26,0,0,1-1-2.38V390.48a3.22,3.22,0,0,1,1-2.42,3.58,3.58,0,0,1,5.48.77l28,55,27.48-55a3.38,3.38,0,0,1,3.06-1.72A3.24,3.24,0,0,1,288.81,388.06Z"/><path class="cls-3" d="M308.28,453.62a3.26,3.26,0,0,1-1-2.38V390.48a3.22,3.22,0,0,1,1-2.42,3.42,3.42,0,0,1,2.42-.95h41.06a3.35,3.35,0,0,1,2.45.95,3.14,3.14,0,0,1,1,2.34,3,3,0,0,1-1,2.28,3.43,3.43,0,0,1-2.45.91H314.11v23.85h27.4a3.31,3.31,0,0,1,2.46,1,3.16,3.16,0,0,1,1,2.32,3.11,3.11,0,0,1-1,2.34,3.42,3.42,0,0,1-2.42.95h-27.4v24.11h37.65a3.43,3.43,0,0,1,2.45.91,3,3,0,0,1,1,2.29,3.14,3.14,0,0,1-1,2.34,3.35,3.35,0,0,1-2.45.95H310.7A3.34,3.34,0,0,1,308.28,453.62Z"/><path class="cls-3" d="M411.38,451.75a2.54,2.54,0,0,1-1,2.07,3.93,3.93,0,0,1-2.54.78,3.3,3.3,0,0,1-1.76-.43,3.88,3.88,0,0,1-1.22-1.31l-15.76-24.72H374.69v23.08a3.24,3.24,0,0,1-1,2.42,3.65,3.65,0,0,1-4.91,0,3.24,3.24,0,0,1-1-2.42V390.48a3.24,3.24,0,0,1,1-2.42,3.36,3.36,0,0,1,2.46-.95h16.37A24.12,24.12,0,0,1,399,389.74a19.65,19.65,0,0,1,7.85,7.39,20.65,20.65,0,0,1,2.84,10.8,19.35,19.35,0,0,1-3.64,11.68,19.89,19.89,0,0,1-9.84,7.17l14.35,22.64A4.51,4.51,0,0,1,411.38,451.75Zm-23.73-30.06a17.51,17.51,0,0,0,7.93-1.77,13.46,13.46,0,0,0,5.51-4.89,12.92,12.92,0,0,0,2-7.09,14.06,14.06,0,0,0-2-7.42,13.45,13.45,0,0,0-5.47-5.11,17.07,17.07,0,0,0-8-1.81h-13v28.1Z"/><path class="cls-3" d="M435.63,450.8a34.6,34.6,0,0,1-12.38-12.61,35.09,35.09,0,0,1-.05-34.65,34.46,34.46,0,0,1,12.35-12.63,32.81,32.81,0,0,1,17.16-4.66,34.39,34.39,0,0,1,11.46,1.81,32.75,32.75,0,0,1,10,5.78,2.34,2.34,0,0,1,1,2,2.29,2.29,0,0,1-.36,1.25,2.09,2.09,0,0,1-1,.82,1.65,1.65,0,0,1-.78.95,2.63,2.63,0,0,1-1.32.34,3.19,3.19,0,0,1-2.18-.77,21.82,21.82,0,0,0-7.45-4.41,28.79,28.79,0,0,0-9.36-1.39A25.79,25.79,0,0,0,439,396.48a28.59,28.59,0,0,0-10,10.33,27.57,27.57,0,0,0-3.72,14A28.12,28.12,0,0,0,429,435a27.79,27.79,0,0,0,10,10.29,26.18,26.18,0,0,0,13.75,3.79A27.21,27.21,0,0,0,470,443a3.3,3.3,0,0,1,1.92-.69,3.22,3.22,0,0,1,2.28.91,3.16,3.16,0,0,1,1,2.38,3.48,3.48,0,0,1-1,2.42q-8.24,7.44-21.45,7.43A32.54,32.54,0,0,1,435.63,450.8Z"/><path class="cls-3" d="M541.11,451.24a3.21,3.21,0,0,1-1,2.38,3.51,3.51,0,0,1-5.65-1.09l-5.87-14H494.71l-5.85,14a3,3,0,0,1-3.16,2.07,3.14,3.14,0,0,1-2.4-1,3.35,3.35,0,0,1-.92-2.38,3.61,3.61,0,0,1,.26-1.47l25.74-60.34a3.39,3.39,0,0,1,3.34-2.32,3.21,3.21,0,0,1,3.23,2.32l25.83,60.42A2.7,2.7,0,0,1,541.11,451.24Zm-43.94-18.49h29.06l-14.52-34.67Z"/><path class="cls-3" d="M552,453.66a3.24,3.24,0,0,1-1-2.42V390.48a3.24,3.24,0,0,1,1-2.42,3.36,3.36,0,0,1,2.46-.95h15.75a36,36,0,0,1,17.7,4.31,30.86,30.86,0,0,1,12.12,12,37.29,37.29,0,0,1,0,34.87,30.81,30.81,0,0,1-12.12,12,36,36,0,0,1-17.7,4.31H554.43A3.36,3.36,0,0,1,552,453.66Zm18.21-5.1A27.9,27.9,0,0,0,584.37,445a25.5,25.5,0,0,0,9.71-9.91,30.75,30.75,0,0,0,0-28.51,25.27,25.27,0,0,0-9.71-9.85,28.16,28.16,0,0,0-14.19-3.55H557.84v55.4Z"/><path class="cls-3" d="M642.41,457.2a11.29,11.29,0,0,1-4.12-.48c-1.51-.43-3-.88-4.45-1.33q-2.64-.7-8.23-2.51-7-3-10.59-11.93-3.15-7.85-3.16-19A85.65,85.65,0,0,1,615,400.76q4.29-16.24,11.12-16.24a6.63,6.63,0,0,1,1.7.3,13.3,13.3,0,0,0,1.7.38c4.33-1.21,7.09-1.81,8.33-1.81.58,0,1.17,0,1.75.08q10.51,1.3,16.54,13,5.44,10.55,5.43,25.15,0,13.83-4.91,23.77Q651.44,456.16,642.41,457.2Zm-1.58-63.36c-1.28-.34-2.56,1.36-3.81,5.1s-2.53,5.62-3.81,5.62a2.87,2.87,0,0,1-1.26-.47,4.52,4.52,0,0,0-1.36-.56q-3,6.47-3,18.49a56.73,56.73,0,0,0,2,16.16q2.27,7.52,6.29,8.3,4.74.87,7.63-9.59a82.36,82.36,0,0,0,2.54-21.78,65.94,65.94,0,0,0-1.32-14.36Q643.37,394.55,640.83,393.85Z"/><path class="cls-3" d="M716.21,388a5.06,5.06,0,0,1-.34,1.81,14.15,14.15,0,0,0-.8,2.32v57.05c0-.18.15.89.44,3.19.36,2.65,0,4.38-1,5.19s-3.42,1-7.09.69a30.83,30.83,0,0,1-7.27-1.64c-3.56-1.1-5.52-2.25-5.87-3.46a19.64,19.64,0,0,0-.26-3.71q-4.91-12.8-11.39-28.1v25.59a4,4,0,0,0,.62,1.81,14.71,14.71,0,0,1,.78,1.57,7.68,7.68,0,0,1,.44,2.58c0,2.31-1,3.46-3.15,3.46a31.86,31.86,0,0,1-8.67-1.73q-5.26-1.73-5.95-2.68-1.05-1.38,0-3.55a9.71,9.71,0,0,0,1-2.68V391.51a6.86,6.86,0,0,0-.26-1.55,3.1,3.1,0,0,1-.08-1.64,5.8,5.8,0,0,1,3.41-4,6.85,6.85,0,0,1,1.92-.16,29.81,29.81,0,0,1,7,.87q4.64,1,6.49,2.94,2.45,2.58,6.39,15.82,4.8,16.24,7.53,21.94v-34a7.91,7.91,0,0,0-.36-1.94,7.74,7.74,0,0,1-.34-2,2.64,2.64,0,0,1,.16-.95c.3-1,1.4-1.7,3.34-2.16a13.07,13.07,0,0,1,4.37-.44,27.76,27.76,0,0,1,4.82,1C714.78,386.1,716.16,387,716.21,388Z"/><path class="cls-3" d="M763.84,444.49c-.7,2.71-1.81,4.36-3.33,4.93a4.1,4.1,0,0,1-1.88.08,3.28,3.28,0,0,0-1.72.08L744,455a3.24,3.24,0,0,0-1.26,1.47c-.44.81-.87,1.26-1.26,1.39-1.29.45-4,0-8.15-1.31s-6.65-2.56-7.53-3.71c-.65-.92-.85-2.36-.6-4.33a19.32,19.32,0,0,0,.16-2.16V388.23a3.12,3.12,0,0,0-.7-1.47,1.74,1.74,0,0,1-.52-1c.12-1.1,1.14-1.9,3.06-2.42q1.83-.43,8,1.29,6.9,2,7,4.67a4.33,4.33,0,0,1-1,2.07,4.41,4.41,0,0,0-1,2.07v47.79l9.11-3.89a11.08,11.08,0,0,1,3-1.55c.81-.12,3,1.11,6.57,3.67S764.07,443.68,763.84,444.49Z"/><path class="cls-3" d="M784.16,388a5,5,0,0,1-.4,1.64c-.26.69-.43,1.13-.48,1.29a39.49,39.49,0,0,0-1.06,5.36v53.07a3.34,3.34,0,0,0,.54,1.87,2.72,2.72,0,0,1,.52,1.33c0,3.68-.7,5.67-2.1,6-.52.11-2.57-.26-6.13-1.13q-5.61-1.38-6.49-2.16c-1.28-1.1-1.92-2.1-1.92-3a1.32,1.32,0,0,1,.36-.78,2.36,2.36,0,0,0,.34-1.47V389a2.28,2.28,0,0,0-.3-1.09,2.19,2.19,0,0,1-.3-1.07c.11-1.39,1.2-2.31,3.23-2.76a20.44,20.44,0,0,1,4,0,32,32,0,0,1,6.31.95C782.87,385.72,784.16,386.7,784.16,388Z"/><path class="cls-3" d="M841.22,388a5.06,5.06,0,0,1-.34,1.81,14.15,14.15,0,0,0-.8,2.32v57.05c0-.18.15.89.44,3.19.36,2.65,0,4.38-1,5.19s-3.42,1-7.09.69a30.83,30.83,0,0,1-7.27-1.64c-3.56-1.1-5.52-2.25-5.87-3.46a19.64,19.64,0,0,0-.26-3.71q-4.91-12.8-11.39-28.1v25.59a4,4,0,0,0,.62,1.81,14.71,14.71,0,0,1,.78,1.57,7.68,7.68,0,0,1,.44,2.58c0,2.31-1,3.46-3.15,3.46a31.86,31.86,0,0,1-8.67-1.73q-5.26-1.73-5.95-2.68-1.05-1.38,0-3.55a9.71,9.71,0,0,0,1-2.68V391.51a6.86,6.86,0,0,0-.26-1.55,3.1,3.1,0,0,1-.08-1.64,5.8,5.8,0,0,1,3.41-4,6.85,6.85,0,0,1,1.92-.16,29.81,29.81,0,0,1,7,.87q4.64,1,6.49,2.94,2.45,2.58,6.39,15.82,4.8,16.24,7.53,21.94v-34a7.91,7.91,0,0,0-.36-1.94,7.74,7.74,0,0,1-.34-2,2.64,2.64,0,0,1,.16-.95c.3-1,1.4-1.7,3.34-2.16a13.07,13.07,0,0,1,4.37-.44,27.76,27.76,0,0,1,4.82,1C839.79,386.1,841.17,387,841.22,388Z"/><path class="cls-3" d="M888.16,445a7.55,7.55,0,0,1-1.54,3.15,5.61,5.61,0,0,1-2.23,2c-.18.05-.49,0-1-.3a2.51,2.51,0,0,0-1.14-.38.85.85,0,0,0-.36.08,35.67,35.67,0,0,0-5.43,2.07,51.35,51.35,0,0,0-11.9,7.52c-5.84-2.36-9-3.66-9.55-3.89q-5.42-2.33-5.43-3.45v-65c0-.41.69-1,2.06-1.73a6.18,6.18,0,0,1,3-1,18.71,18.71,0,0,1,4.2,1.33,14.66,14.66,0,0,0,5.17,1.25c1.75,0,4-.77,6.83-2.34,2.56-1.5,4.16-2.13,4.81-1.9q2.1.7,6.27,4.53c2.76,2.57,4.27,4.4,4.51,5.5.11.51-.43,1.4-1.62,2.68s-2.18,1.9-2.94,1.9a2.85,2.85,0,0,1-1.4-.26c-.29-.16-.49-.23-.6-.16a49.56,49.56,0,0,0-5.87,1.64c-4.31,1.44-7.5,3.11-9.55,5v14.08a62.14,62.14,0,0,1,8-3.2q1.4-.16,5.91,3.85t4.51,5.58a3.53,3.53,0,0,1-1.22,2.24,5.71,5.71,0,0,1-2.36,1.65c-.58,0-1.61.05-3.06.18q-3.32.6-11.73,5.52v9.08q2.64-1.57,7.15-3.68c3-1.4,4.85-2.12,5.55-2.12s2.87,1.25,6.17,3.76S888.27,444.33,888.16,445Z"/><line class="cls-4" x1="184.47" y1="365.62" x2="921.2" y2="365.62"/><path class="cls-3" d="M267.29,61.89a27.28,27.28,0,0,1,18.07-3.2,63.16,63.16,0,0,1,18.91,6.24,112.27,112.27,0,0,1,17.4,11q8.1,6.25,13.51,11.31a22.53,22.53,0,0,1,5.4,8.62,15.1,15.1,0,0,1,0,10q-3.05,12.49-9.29,20.09a75.13,75.13,0,0,1-12,12q5,3.71,8.6,11.47a89.18,89.18,0,0,1,5.74,17.73q2.18,10,3.55,21.45c.89,7.65,1.47,15.2,1.69,22.63q.68,10.47.51,20.09t-.85,17.4q-.33,9.79-2,23a172.94,172.94,0,0,1-5.91,27.34,192.75,192.75,0,0,1-10.81,28,104.78,104.78,0,0,1-16.54,25,81.24,81.24,0,0,1-23.8,18.23q-13.85,7.09-31.74,7.76-31.08,1-51.17-12.83a83.64,83.64,0,0,1-29.89-36.63q-9.79-22.8-10.13-51.66a201.6,201.6,0,0,1,8.11-58.26,320.43,320.43,0,0,1,21.27-55,372.26,372.26,0,0,1,27.18-46.25,249.27,249.27,0,0,1,28.7-34.79Q256.15,68.3,267.29,61.89Zm38.16,23.3q-11.83-5.4-22.45-2.36t-20.27,12a109.61,109.61,0,0,0-17.89,22.12,250.93,250.93,0,0,0-15,27.69q-16.2,34.44-28.36,81.73-6.08,23-7.43,40.85a156,156,0,0,0,.34,31.25,80.32,80.32,0,0,0,5.91,22.78,74.48,74.48,0,0,0,9.27,15.87A50.6,50.6,0,0,0,241,355.34q15.19,2.35,25.83-5.58a61.71,61.71,0,0,0,17.4-20.43,124.56,124.56,0,0,0,10.64-27,241.27,241.27,0,0,0,5.56-25.67q4.39-35.45,3.89-58.08t-2.87-35.79q-2.7-15.52-7.76-23.29-7.77-.35-14,6.75A71.17,71.17,0,0,0,268.82,183a137.7,137.7,0,0,0-7.6,19.75q-3.05,10.14-4.4,15.87a4.51,4.51,0,0,1-3.55,3.72,4.63,4.63,0,0,1-4.89-1.69,6.16,6.16,0,0,1-2-3.38l-.33.34-.34.33v.67h.67a.64.64,0,0,0,.18.51.73.73,0,0,1,.16.51H247v.34l.34.33v1l-.67.33H247v.69l-.33.33h-.34a1,1,0,0,1,.34.67v0a1,1,0,0,0-.34.69l.34-.34a.31.31,0,0,1-.34.34c0,.22.05.33.18.33s.16.12.16.34.05.33.16.33.16.12.16.34h-.33l.33.67.34.34v1h-.67l-.34.34h0V228l.34.34H247v0h.34v.34h.34c-.23,0-.34.11-.34.33l-.34.34a.3.3,0,0,1,.34.33v.34h.34l-.34.33H247c0,.23-.11.34-.33.34v-.34l-.67-.67v.34h-.69l-.33-.34.33-.33V229H246l-.69-.67H245l-.34.34a.94.94,0,0,1-.67-.34V226h1v.34l-.34.33V227h.67l.34-.34.34-.33a1,1,0,0,1-.69-.34.59.59,0,0,1-.67-.67H245V225a2,2,0,0,0-1.69-1l.67.67-.33.33H243v-.33c-.22,0-.33-.05-.33-.18s-.12-.16-.34-.16l.34-.33H243l.34-.34V223a1.36,1.36,0,0,1,.34-1H244a1.92,1.92,0,0,0-1.35-.67h-.34v-.34H242v-.33h-.34a.31.31,0,0,1,.34-.34h-.67l.33-.33H243c.23,0,.34.05.34.16s.11.16.34.16l.67-.67h0l.33-.34h-1a5.78,5.78,0,0,0-2.36.34H241v-.34a.3.3,0,0,0,.34-.33c.22,0,.33-.11.33-.34l-.33-.33H241v-.34h.67a.29.29,0,0,1-.33-.33h1.35c0-.69-.45-1-1.35-1l.67,1h-.34a.94.94,0,0,1-.67-.34l-.34-.34h-.33v-1h1.35a6.73,6.73,0,0,0,1.35.51,6.78,6.78,0,0,1,1.36.49l.33-.33a3.61,3.61,0,0,0-1.35-.67,5.74,5.74,0,0,0-1.69-.34h-.33c0-.22.33-.33,1-.33H243l-1-.69-.67-.33H241v-.67h.34l.67-.34-.67-.33h1l-.67-.34h-.33l.33-.34.67-.33h-.67a.29.29,0,0,1-.33.33l-.34-.33v-.34c0-.22.11-.33.34-.33s.11-.11-.34-.34l1.69.34h-1.35a.29.29,0,0,1,.33.33h2a.69.69,0,0,1-.51-.16.73.73,0,0,0-.51-.16.64.64,0,0,1-.51-.18.71.71,0,0,0-.51-.16.94.94,0,0,1-.67-.34h1a1.9,1.9,0,0,1-.67-1.35,1,1,0,0,1,.33-.67H242a.31.31,0,0,0-.34-.34H242a.3.3,0,0,0-.34-.33c-.22,0-.33-.11-.33-.34v-.33h.33v-.34H241v-.33h.67l-.67-1h1a1,1,0,0,0,.33.67v.34H243a2.69,2.69,0,0,1-.49-.69,2,2,0,0,0-.85-.67q-.33,0-.33-.16c0-.11-.12-.16-.34-.16l.67-.67h-.33l.67-.34h0v-.34h.33a.94.94,0,0,0,.67.34c0-.22-.22-.34-.67-.34H242l-.34.34a.31.31,0,0,1,.34-.34h-.34l.67-.67a3.42,3.42,0,0,1-1-.67l-.34-.33h.67v-.34L242,201l.33-.33H242a.31.31,0,0,0-.34-.34l-.33-.33h.33l-.67-.34h.67a1.39,1.39,0,0,1-.33-1v-.33h-.69V198a1.39,1.39,0,0,0,1-.33h-.33c-.23,0-.34-.05-.34-.18s-.11-.16-.34-.16h.69V197h.33v-.67c-.45,0-.67.12-.67.34h-.67a.3.3,0,0,1,.33-.34.61.61,0,0,1,.69-.67h.33l-.33-.33.67-.34h.33v.34c0-.23-.05-.34-.16-.34s-.16-.11-.16-.34v-.67h.33l-.33-.33v0h.33v-.34a.29.29,0,0,0-.33-.33l-.34-.34v-.34H242a.59.59,0,0,1-.67-.67c.44-.44.33-.78-.34-1h.34a1,1,0,0,1,.67.33h.33c0-.45-.11-.67-.33-.67a.3.3,0,0,1,.33-.34.3.3,0,0,0,.34.34v-.67H242a.3.3,0,0,1-.34-.34h.67v-1l.34-.33v-.34c-.23,0-.34-.11-.34-.33l.34.33v-.33l-.34-.67v-.34h.34v-.34H243l-.33-.67h.67a.3.3,0,0,0,.34.34h-.34v-.34h.34l-.34-.33v-.34H243l.34-.33v-.34H244v.34h.34l-.34-.34h-.33v-.34l.33-.33-.33-.34h.67l-.34-.33h.34l.33.33q.33,0,0-.33c-.45,0-.56-.11-.33-.34h.33a.29.29,0,0,0-.33-.33v-.34H244l-.33-.34a.29.29,0,0,0,.33-.33.59.59,0,0,1,.67-.67c.45,0,.67-.11.67-.34v-.34H245l-.34.34h-.33v-.67h.33v-.34h.67V178l-.33-.67h.33V177h.34l.34-.33v-.34h-.34A.3.3,0,0,0,246,176a.68.68,0,0,0,.51-.18.67.67,0,0,1,.49-.16h.69a1,1,0,0,0-.34-.67c0,.67-.23.8-.67.34A.92.92,0,0,1,246,175h.67v-1l.33-.33h.34l.34.33H248q0-.33-.16-.33c-.12,0-.16-.11-.16-.34H248a1,1,0,0,0-.67-.33c0-.23-.05-.34-.16-.34s-.18-.22-.18-.67h.34v0H248l-.33-.34A1,1,0,0,1,248,171a.3.3,0,0,0,.34-.33v-.34H248a4.67,4.67,0,0,1,.34-2,1,1,0,0,1,.33-.67l-.33-.33v-.34l.33-.33v-.34l.34.34h.67l-.34-.34h0c-.22,0-.33-.11-.33-.34.67,0,1-.22,1-.67l.33-.33c-.22,0-.33-.11-.33-.34h0v-.33l.67-.69a2,2,0,0,0,.67-1.35h.33v-.67h.34v-.34l.34-.33h.33a3.77,3.77,0,0,1,.16-1.18,3.45,3.45,0,0,0,.18-1.18,1,1,0,0,1,.33-.67,31.78,31.78,0,0,1,8.11-10.31,43,43,0,0,1,11.14-6.75A62.48,62.48,0,0,1,285,137q6.25-1.17,12-1.85,6.41-13.17,8.6-22.63A71.05,71.05,0,0,0,307.81,97,26.42,26.42,0,0,0,305.45,85.19ZM248,190.88a.29.29,0,0,0-.33-.33.31.31,0,0,1-.34-.34,1,1,0,0,1,.67-.34.3.3,0,0,0,.34-.33.64.64,0,0,1-.51-.18.73.73,0,0,0-.51-.16c.22,0,.56-.22,1-.67h-1c0-.22.22-.27.67-.16s.56.05.34-.18h.67a1,1,0,0,1-.67-.33c-.45-.22-.56-.4-.34-.51a1.52,1.52,0,0,1,.67-.16,2.74,2.74,0,0,0-1-.34c.44-.22.6-.44.49-.67s.05-.34.51-.34q-.68-.33,0-.49c.45-.11.11-.29-1-.51.22.45.16.73-.18.84s-.29.4.18.85a4,4,0,0,1-.85-.51c-.11-.11-.4-.05-.84.16a5.69,5.69,0,0,1,1.35,1,1.42,1.42,0,0,0-1-.34c.67.45.67.8,0,1,.22.45.4.67.51.67s-.16.11-.84.34a1,1,0,0,0,.67.33v.34h-.85a.94.94,0,0,1,.51.33h.34a.31.31,0,0,1-.34.34c-.45,0-.67-.05-.67-.16s-.22-.18-.67-.18h-1.69c-1.13,0-.8.23,1,.69v-.34c1.13.22,1.35.34.67.34s-.67.11,0,.33c.22.23.22.34,0,.34-.23.22-.12.67.33,1.35H246c-.45.22-.45.34,0,.34s.67.11.67.33h-1a.3.3,0,0,0,.34.34h1c0-.45.11-.73.34-.85s.11-.38-.34-.84a1.34,1.34,0,0,0,1-.34h-1c.45,0,.56-.11.34-.33S247.37,190.88,248,190.88Zm-4.73,13.18h0Zm.67,0v-.34h-.33v.34Zm2.36-5.74h1.36c.22-.22.11-.34-.34-.34s-.56-.11-.34-.33c-1.13,0-1.64.11-1.51.33s-.4.34-1.53.34c1.58,0,2,.05,1.18.16s-1.07.29-.84.51c.67,0,1,.11,1,.33H245v.51c0,.12.33.18,1,.18-.91.45-1.25.67-1,.67.45,0,.62.05.51.16s.05.16.51.16q1.34,0,.33-.33c-.67-.22-.45-.34.67-.34-.67-.67-.78-1.13-.33-1.35-.67-.22-.67-.34,0-.34s.78-.11.33-.33Zm-2,6.75c.22-.22.11-.33-.34-.33Zm.33-3.37c.22,0,.29-.05.18-.18a.73.73,0,0,0-.51-.16A.3.3,0,0,0,244.66,201.7Zm-.33.67c1.13,0,1.46-.11,1-.34s-.78-.22-1,0c.44,0,.62.05.51.16A.68.68,0,0,1,244.33,202.37Zm2.69-5.74c.91,0,1.36-.11,1.36-.34h-1c-.45-.44-.34-.78.34-1-.47,0-.69-.11-.69-.34s-.22-.22-.67,0c0,.23-.16.4-.51.51s-.27.29.18.51c-.69.22-.91.4-.69.51s0,.16-.67.16a.3.3,0,0,1,.34.33c.67,0,1,.12,1,.34a1.58,1.58,0,0,1-.69-.16,1.54,1.54,0,0,0-.67-.18c0,.23.34.45,1,.69h1c.44,0,.55-.05.33-.18s-.11-.27.34-.51c-.45,0-.56,0-.34-.16S247.24,196.63,247,196.63Zm-2,14.85h-.34l.34.34Zm-.34.67H245v.34A.31.31,0,0,0,244.66,212.15Zm1.36,4.05-.34-.67v.34Zm3.71-36.47a2.88,2.88,0,0,0,1.35.34c0-.22-.27-.45-.84-.69s-.74-.44-.51-.67c1.35.45,1.64.45.84,0s-.84-.67-.16-.67q-.33-.33.16-.33c.34,0,.29-.11-.16-.34,1.13.45,1.4.45.85,0s-.51-.56.16-.34c.44-.44.22-.67-.67-.67q.33,0,.33-.16c0-.11.11-.16.34-.16-.67-.22-1-.34-.85-.34s-.16-.11-.84-.33c-.45.22-.56.38-.34.49a1.91,1.91,0,0,1,.69.85,5.91,5.91,0,0,0-1.69-.34l.67.34.67.33a2,2,0,0,1-1.35-.33c.44.67.55,1.18.33,1.51s0,.74.67,1.18c.23.47,0,.63-.67.51s-.78,0-.33.18H247a.71.71,0,0,1,.51.16.71.71,0,0,0,.51.16c-.45,0-.56.12-.33.34a1,1,0,0,0,.67.33l.33-.33v.67c-.45-.22-.67-.27-.67-.16s-.22.05-.67-.18c-.23.23-.67.23-1.35,0-.23.23.11.4,1,.51s1.36.29,1.36.51c-1.36-.45-2.14-.56-2.36-.33a.29.29,0,0,1,.33.33.71.71,0,0,1,.51.16.64.64,0,0,0,.51.18h.34a.55.55,0,0,0-.18.67c.11.22-.05.45-.51.67h0a1,1,0,0,1,.34.67h1.69c-.45-.45-.51-.73-.16-.84s.27-.4-.18-.85a1.37,1.37,0,0,1,.67.18c.23.11.11.05-.33-.18h.67v-.33h.34c.44,0,.49-.05.16-.18s-.51-.27-.51-.49c.22-.23.11-.45-.34-.69,0-.44.23-.44.69,0,.22-.22.16-.33-.18-.33s-.51-.11-.51-.34c.45.23.62.23.51,0s.05-.33.51-.33h-.67Zm-3-1.69v-.33h-.34L246,178h.67Zm.33,26.34h-.33a1,1,0,0,1-.67-.33v.33Zm-.67-2c0,.22.11.33.34.33H247q-.33,0-.33-.16C246.69,202.43,246.57,202.37,246.35,202.37Zm1.36-7.78q-.35-.33.16-.33c.33,0-.05-.11-1.18-.34C246.69,194.37,247,194.59,247.71,194.59Zm-.34,7.43h0ZM247,184.47l.34.34A.31.31,0,0,0,247,184.47Zm.34-7.09a1.52,1.52,0,0,1,.67.16q.33.19-.33-.16Zm.67,1.35.34.34Zm0,.67.34.34Zm.67-3.71c.22,0,.29-.05.18-.16a.73.73,0,0,0-.51-.16Zm1.69-3a1.89,1.89,0,0,0,.34,1.35h-1.69a4.58,4.58,0,0,1,.84.51,3.29,3.29,0,0,0,.85.51,1,1,0,0,1,.33-.67,1,1,0,0,0,.34-.67h.33c-.45-.45-.56-.8-.33-1s.11-.56-.34-1h1.36a2.34,2.34,0,0,0-.18-1c-.11-.23.05-.56.51-1q.33,0-.16-.16c-.34-.12-.4-.18-.16-.18.44,0,.67-.11.67-.33,0-.45.11-.69.33-.69s.22-.22,0-.67v-.67q.68,0,0-.33a.3.3,0,0,1,.34-.34c.22,0-.12-.22-1-.67-.45-.22-.67-.16-.67.16s.22.62.67.85c-.91-.23-1.35,0-1.35.67s-.23,1-.67,1a.87.87,0,0,1,0,1.36,1.52,1.52,0,0,0,.16.67c.11.22-.29.22-1.18,0,.89.45,1.13.67.67.67s-.67.12-.67.34A1.92,1.92,0,0,1,250.4,172.65Zm-1.35,25q.33,0,.16.16c-.11.11.05.16.51.16Zm0,1.68c0,.23.11.34.33.34Zm1.69-11.14c.22,0,.27,0,.16-.16a.71.71,0,0,0-.51-.16q-.33,0,0,.33Zm.33.69-.67-.34Zm-.67,14.85h0Zm1.35-2c-.22,0-.27-.05-.16-.18s-.05-.16-.51-.16C251.08,201.57,251.3,201.7,251.75,201.7Zm.34-12.16c.22,0,.27-.05.16-.18a.69.69,0,0,0-.51-.16c-.22,0-.22.12,0,.34Zm-.34,12.16c0,.22.23.33.69.33h1q.68,0-.33-.33c-.45,0-.67.05-.67.16S252.2,201.92,251.75,201.7Zm1-10.14c0-.22.22-.27.67-.16s.56.05.34-.16h-1c.45,0,.62-.05.51-.18s-.05-.16.16-.16a1,1,0,0,0-.67.34c-.45-.22-.62-.29-.51-.18a.66.66,0,0,0,.51.18h-.67q-.35,0-.16.16A1.33,1.33,0,0,0,252.77,191.56Zm-.67-12.83c.45,0,.67.07.67.18s.22.16.67.16c0-.45-.45-.67-1.35-.67Zm0,18.23a.3.3,0,0,0,.34.34Zm.67,1.36a1,1,0,0,0-.67-.34v.34Zm-.67,2.36V201h1v-.33Zm0,.67a1.86,1.86,0,0,0,1.35.16q.68-.16-.33-.16h-.34q-.33,0-.33-.16c0-.11-.12-.18-.34-.18Zm1.35-11.14c0-.22.22-.27.67-.16s.56.05.34-.18l.34.34a.31.31,0,0,0-.34-.34c.45-.22.51-.44.16-.67s-.27-.44.18-.67h-1.69a1.51,1.51,0,0,0,.33,1.69c-.45,0-.67.05-.67.16s.22.18.67.18h-1q.33,0,.33.16c0,.11.22.16.67.16h.34l-.34-.33Zm1.36-2.36h.33c-.67-.45-.84-.67-.51-.67s.51-.11.51-.34a.71.71,0,0,1-.51-.16.69.69,0,0,0-.51-.16c1.13,0,1.47-.23,1-.69q-1-.66-.16-.49l-.85-.18c-.45,0-.67.34-.67,1,.45.45.34.8-.33,1,.44.22.51.33.16.33s-.16.12.51.34a1.41,1.41,0,0,0-.85.16c-.11.12.29.29,1.18.51a1.41,1.41,0,0,0,.85-.16c.11-.11-.16-.29-.85-.51Zm-1.69,9.8q-.35,0,0,.16a2.32,2.32,0,0,0,1,.16c0-.22-.22-.33-.67-.33Zm0-17.56c0,.22.22.33.67.33Zm.33,2.69-.33-.33Zm1.36-20.93c.22.22.16.33-.18.33s-.27.23.18.67c-.91,0-1.25.29-1,.85a1.3,1.3,0,0,1-.34,1.51c.45.23.45.34,0,.34s-.11.22,1,.67a2.22,2.22,0,0,0,.51-1.69c-.12-.44.27-.89,1.18-1.35a1.32,1.32,0,0,1,.16-1.85,1.74,1.74,0,0,0,.16-2.2c.91,0,1.24-.22,1-.67s0-.67.67-.67l-.33.33v.34h.67c.89.45.89.22,0-.67.22-.22.16-.4-.16-.51s-.4-.29-.18-.51h0a.67.67,0,0,1,.34-1c.45-.22.34-.67-.34-1.35-.45.22-.67.78-.67,1.69a2.71,2.71,0,0,0-.51.67,1.77,1.77,0,0,1-.84.67,2,2,0,0,1-.67,2,1.87,1.87,0,0,0,.33,2.36C255.13,161.62,254.8,161.62,254.8,161.85Zm-.34,21.94q.33,0,0-.16a2.36,2.36,0,0,0-1-.18c.22.23.22.4,0,.51s0,.29.67.51c.45.23.62.34.51.34s.05.11.51.33q-.33-.33,0-.33c.22,0,0-.11-.67-.34.22-.22.22-.38,0-.51s.22-.05,1.35.18c-.22,0-.27-.05-.16-.18s-.05-.16-.51-.16Zm1.35-4.05c1.13-.45,1.36-.78.67-1h1c-.67-.22-1-.44-1-.67s.34-.33,1-.33q-1-.35,0-1.36v-.67c0-.22-.22-.56-.67-1-.91,0-1.24.18-1,.51s.11.63-.33.85c.22.22.38.33.51.33s.27.12.49.34c-.89-.45-1.4-.56-1.51-.34s.16.45.84.67c.45.23.4.29-.16.18s-.84-.05-.84.16c.67,0,1,.11,1,.34-.45-.23-.62-.29-.51-.18a.68.68,0,0,0,.51.18c.22.22.05.22-.51,0s-.84-.23-.84,0c1.13.45,1.35.62.67.49s-.89-.16-.67-.16c.67.45.89.67.67.67a.3.3,0,0,0-.33.34l.33.33h-1a3.6,3.6,0,0,0,.69,1c.22.23-.12.34-1,.34.89.67.89,1,0,1a3.71,3.71,0,0,0,.67,1c.22.23-.11.34-1,.34a3.69,3.69,0,0,1,1.36.16c.22.12.55.29,1,.51,0-.45.11-.67.34-.67s.11-.11-.34-.34c.45-.22.51-.38.18-.51s-.29-.16.16-.16h-.34v-.33c.45,0,.67-.05.67-.18s.23-.16.69-.16a5.15,5.15,0,0,1-1.36-1h.34c.22,0,.33.05.33.18s.12.16.34.16v-.51C256.82,180.14,256.48,180,255.8,179.74Zm-2.36,5.4h1a1.39,1.39,0,0,0-1-.33Zm.67,11.82-.67-.33C253.44,196.85,253.66,197,254.11,197Zm.34,2c-.67.22-.8.4-.34.51a5.76,5.76,0,0,0,1.36.16Zm0-26c.22,0,.27-.05.16-.18a.69.69,0,0,0-.51-.16Zm.67,3-.67-.34ZM254.46,197c.22.23.27.34.16.34h.51c-.22,0-.29-.05-.16-.16S254.91,197,254.46,197Zm1.35-30.38q-.33,0-.16.16a.69.69,0,0,0,.51.16Zm2,7.09c.44,0,.67-.11.67-.34a1.39,1.39,0,0,1-1-.33,2.48,2.48,0,0,1-.84-.18c-.34-.11-.29.05.16.51Zm.67-1.36q.68,0,.16-.49t1.53.16c-1.13-.45-1.42-.67-.85-.67s.51-.22-.16-.67a1.29,1.29,0,0,0,.85-.18c.11-.11-.29-.38-1.18-.84h.67c0-.22.11-.29.33-.16s.11-.05-.33-.51a2,2,0,0,1-1.36-.34c-.22.23-.16.4.18.51s.51.29.51.51a1.35,1.35,0,0,0-.69,1.35h-.33a1,1,0,0,0,.33.67c.23.23-.11.23-1,0,.22.23.38.34.51.34s.27.11.49.33a3.07,3.07,0,0,0-.84-.33,2.72,2.72,0,0,1-.85-.34l2,1.36-.34-.69Zm-1.69,11.49c-.22,0-.29.05-.16.16a.64.64,0,0,0,.51.18Zm.34-18.58c-.23,0-.29.07-.18.18a.71.71,0,0,0,.51.16Zm.33-3.37-.33-.34Zm-.33,9.11.33.34Zm.67,8.78-.67-.34Zm-.34-19.58c-.22,0-.29.05-.16.16a.69.69,0,0,0,.51.16q.33,0,.16-.16A.71.71,0,0,0,257.49,160.16Zm0,17.89c-.22,0-.29.05-.16.16a.64.64,0,0,0,.51.18Zm.34-.33c.67.22,1.06.27,1.18.16s-.05-.27-.51-.51h-.67Zm.33,1.68c.23,0,.29,0,.18-.16a.73.73,0,0,0-.51-.16Zm1.69-25.32c-.45-.44-.73-.62-.84-.51s-.4.07-.85-.16c1.13.67,1.36,1,.69.85s-.58.16.33.84c0-.45.11-.62.34-.51s.44.05.67-.16v0Zm-1.35,23-.34-.33Zm.34-20.6c0,.23.11.34.33.34Zm0,10.47.67.34Zm.67,6.09-.67-.34Zm0-16.89c0-.22.11-.29.33-.18s.11.07-.33-.16c-.23-.22-.34-.27-.34-.16S259.29,155.89,259.53,156.11Zm-.34,9.45.34.33Zm.67-10.47c.22,0,.29-.05.18-.16a.74.74,0,0,0-.51-.18Zm2,13.16c-.45-.44-.56-.67-.34-.67s-.11-.22-1-.67h-.33a1,1,0,0,1-.67-.33c1.11.45,1.29.62.51.49s-.63.07.49.51Zm-2,0c-.22,0-.27.07-.16.18a.69.69,0,0,0,.51.16ZM261.22,151q-1.36,0-1.36,1.69c.91.45,1.29.4,1.18-.16a1,1,0,0,1,.51-1.18C261.33,151.38,261.22,151.27,261.22,151Zm-1.36,12.16.34.33c.22,0,.27,0,.16-.16A.71.71,0,0,0,259.86,163.2Zm0,.33.34.34q.33,0,.16-.16A.71.71,0,0,0,259.86,163.53Zm.67,3.05.69.33c-.23-.22-.12-.38.33-.51s.22-.38-.67-.84c0,.22-.16.33-.51.33S260.08,166.12,260.53,166.58Zm0-3.38q-.33,0-.16.16a.63.63,0,0,0,.51.16Zm3.05,3.71c-1.14-.67-1.47-1-1-1s.22-.22-.67-.67c-1.13-.44-1.58-.62-1.36-.51s.34.4.34.85c.45.22.67.29.67.16s.22-.05.67.16v.51c0,.12.34.29,1,.51Zm-3.05,4.73.69.34Zm1.69-21.27c-.45-.22-.67-.27-.67-.16s-.22-.05-.67-.51l.34.67a8.72,8.72,0,0,0,1.18.51C262.73,151,262.67,150.82,262.22,150.36Zm-1.35,11.14.34.34c.22,0,.27-.05.16-.18A.73.73,0,0,0,260.87,161.51Zm1.69,3c0-.22.45-.33,1.35-.33-1.13-.69-1.47-.91-1-.69s.45.12,0-.33a.3.3,0,0,0,.34-.34c-.22-.22-.11-.22.34,0s.11.12-1-.33a2.44,2.44,0,0,1,1,.16c.22.11,0-.05-.69-.51a1,1,0,0,0-.67-.33q-.33,0-.33.16c0,.11.22.29.67.51v.33h.67l-.34.34c-.67-.45-.95-.56-.84-.34s-.05.12-.51-.33c-.22.22-.11.56.34,1-.91,0-1,.34-.34,1,1.13.45,1.47.51,1,.16S262.11,164.32,262.56,164.54Zm-1-15.2v.34a3.31,3.31,0,0,0,1.18.84c.34.12.29-.05-.16-.51l-.67-.33Zm.34,3.72-.34-.34Zm0-4.05.67.67A.6.6,0,0,0,261.89,149Zm0,12.49a2.92,2.92,0,0,1,2,1c-.45,0-.73-.05-.84-.18S262.56,162,261.89,161.51Zm.33,5.4.34.34Zm1-1c.22,0,.27,0,.16-.16a.69.69,0,0,0-.51-.16Zm.67-4v-.34c-.67-.45-1-.56-.84-.34A1.78,1.78,0,0,0,263.91,161.85Zm.34-.69-.67-.33C264,161.29,264.25,161.4,264.25,161.16Zm-.34-14.85v0Zm.34-.67a1,1,0,0,0,.33.67A1,1,0,0,0,264.25,145.64Zm.67,3c-.45-.22-.56-.16-.34.16a12.93,12.93,0,0,1,.67,1.18A3.08,3.08,0,0,0,264.93,148.67Zm-.34-2.71a.71.71,0,0,1,.51.18q.16.16-.16.16a.73.73,0,0,0-.16-.51C264.64,145.69,264.58,145.75,264.58,146Zm0,1,.67.67V147l-.67-.33Zm0,11.14c.45.45.56.63.34.51s-.12.05.33.51c.45,0,.62-.11.51-.34s.05-.44.51-.67c-1.13-.67-1.51-.73-1.18-.16S265.26,158.58,264.58,158.13Zm.67,1.69-.33-.33q.33,0,.16.16T265.26,159.82Zm1-12.83c.22.23.22.34,0,.34s-.11.22.34.67v-.34A1,1,0,0,0,266.27,147Zm.34,9.12c-.23,0-.29.05-.18.16a.73.73,0,0,0,.51.16Zm.67.67c.22,0,.11-.22-.34-.67Zm.34-.34-.69-.33Zm0-1.69-.34-.33Zm.67.34c-.23-.22-.29-.34-.18-.34s-.05-.11-.49-.33q.33.33.16.33C267.68,154.75,267.85,154.87,268.31,155.09Zm.33-1.35c.22,0,.29-.05.18-.18a.73.73,0,0,0-.51-.16Zm0-1c0,.23-.05.34-.16.34s.16.22.84.67v-.34Zm2,2.36H271c-.89-.67-1.24-.84-1-.51S270.44,155.09,270.67,155.09Zm-.34-4.73L270,150Zm1.35-.34c.23,0,.29,0,.18-.16a.73.73,0,0,0-.51-.16Zm.34-.67c.22.23.27.34.16.34s-.05.11.18.33Zm0,.34V150c0,.23.22.45.67.69v-.34Z"/><path class="cls-3" d="M401.69,67.63a21.46,21.46,0,0,1,.33-4.05c.45-2.47,1.91-3.49,4.4-3,1.57.22,4.22,1.4,7.93,3.55a37.11,37.11,0,0,1,10.31,9.11,42,42,0,0,1,7.26,14.69q2.54,8.8-1.18,20.27-2,6.76-6.24,20.76T415,161q-5.26,18.08-10.81,38.16t-10.64,39q-2.7,10.8-5.91,23t-6.07,23c-1.92,7.21-3.5,13.67-4.74,19.42a109.6,109.6,0,0,0-2.18,12.67v3.38q.33,2,1.69,2,2.35,0,7.6-5.74a155.5,155.5,0,0,0,11.47-14.52q6.25-8.76,12.83-19.24t12-20.27a15.27,15.27,0,0,1,2.36-4.73,7.27,7.27,0,0,1,2.36-2.53,1.73,1.73,0,0,1,2.36.16,10.23,10.23,0,0,1,1.85,6.75,17.73,17.73,0,0,1-2.87,8.45q-.68,1.36-4.05,7.6t-8.11,14.85q-4.72,8.62-10.64,18.41t-11.82,17.89a104.7,104.7,0,0,1-11.49,13.51c-3.71,3.6-6.93,5.4-9.62,5.4a8.74,8.74,0,0,1-3.38,0,34,34,0,0,1-8.11-1.69,36.5,36.5,0,0,1-9.11-4c-2.93-1.81-4.62-3.94-5.07-6.42.23-6.54.56-13.51,1-20.94q.68-9.46,1.69-21.45t2.69-24.82a31.87,31.87,0,0,0,.51-3.38c.12-1.13.29-2.24.51-3.38s.38-2.24.51-3.37a17.1,17.1,0,0,1,.84-3.72c.45-2,.91-4.09,1.36-6.24s.89-4.34,1.35-6.6q2.35-11.13,5.56-23.63t6.6-24.65q3.36-12.16,6.75-23.47t6.09-20.09q3.36-10.8,7.26-23t7.09-23.47q3.22-11.32,5.07-20.78A82.1,82.1,0,0,0,401.69,67.63Z"/><path class="cls-3" d="M484.86,162.69q10.59-10.64,27.41-10.64a35.44,35.44,0,0,1,15.64,3.2A34.68,34.68,0,0,1,539,163.7,38.07,38.07,0,0,1,546.07,176a92.31,92.31,0,0,1,3.86,14.52h.67a67.32,67.32,0,0,1,5.72-14.36,49.78,49.78,0,0,1,9.25-12.33,43.43,43.43,0,0,1,12.78-8.62,40,40,0,0,1,16.32-3.2q13.44,0,21.52,5.74a39.13,39.13,0,0,1,12.61,15,67.43,67.43,0,0,1,6.06,20.94,180.49,180.49,0,0,1,1.51,23.13V325H614.09V216.88a151.89,151.89,0,0,0-.84-15.69,52.82,52.82,0,0,0-3.55-14.52,26.76,26.76,0,0,0-7.94-10.81q-5.24-4.2-14-4.22a25.26,25.26,0,0,0-14.69,4.56,36.28,36.28,0,0,0-11,12.49,69.49,69.49,0,0,0-6.75,18.23A95.38,95.38,0,0,0,553,228.37V325H530.68V216.88a157.2,157.2,0,0,0-.84-15.87,58,58,0,0,0-3.37-14.69,24,24,0,0,0-7.72-10.64q-5.21-4-13.6-4.05a24.76,24.76,0,0,0-14.77,4.56,38.36,38.36,0,0,0-10.91,12.49,66.36,66.36,0,0,0-6.88,18.23,96.18,96.18,0,0,0-2.35,21.45V325H448V199.66c0-3.6-.07-7.47-.18-11.65s-.22-8.22-.33-12.16-.23-7.53-.34-10.8-.29-5.8-.51-7.6h22q.66,6.41,1,15.54t.33,17.22h.67Q474.28,173.33,484.86,162.69Z"/><path class="cls-3" d="M757.61,325c-.22-1.8-.4-4.05-.51-6.76s-.22-5.56-.33-8.6-.18-6-.18-8.78v-7.27h-.67q-8.43,35.8-40.52,35.79a39.59,39.59,0,0,1-14.18-2.69,34.4,34.4,0,0,1-12.83-8.78,47.93,47.93,0,0,1-9.45-15.38q-3.73-9.27-3.71-22.45,0-18.24,6.42-29.38a50.89,50.89,0,0,1,16.2-17.56,58.74,58.74,0,0,1,21.45-8.62,120,120,0,0,1,22.12-2.18h13.16v-8.78q0-22-8.11-32.08T724.52,171.3A32.59,32.59,0,0,0,707,176.36a50.28,50.28,0,0,0-13.85,12.83L681.3,175.36a51.9,51.9,0,0,1,20.27-17.23,56.58,56.58,0,0,1,25-6.07q26.34,0,37.48,17.22t11.14,50.32v69.57c0,2.25.05,5.06.16,8.44s.23,6.82.34,10.31.27,6.75.51,9.78.44,5.47.67,7.27Zm-2.69-85.1H741.41a87.39,87.39,0,0,0-16.21,1.51,37.8,37.8,0,0,0-14.36,5.74,32.52,32.52,0,0,0-10.29,11.65q-4.06,7.42-4.05,19.25,0,17.56,7.76,25.32t16.89,7.76a23.52,23.52,0,0,0,16-5.74,40.58,40.58,0,0,0,10.47-14.51,79.06,79.06,0,0,0,5.58-19.25,128.69,128.69,0,0,0,1.69-20.27Z"/><path class="cls-3" d="M894.71,325l-33.43-70.24L828.2,325H803.55l44.57-88.15-40.86-79.35h25l29.38,63.15,29-63.15H915l-40.19,79L920.05,325Z"/></g></g></svg>